# xmcd CD database file
#
# Track frame offsets:
#	150
#	14633
#	25243
#	40003
#	55212
#	65404
#	75349
#	94225
#	107466
#	132679
#	144258
#	158975
#	181555
#	201531
#
# Disc length: 2976 seconds
#
# Revision: 0
# Processed by: cddbd v1.5.1PL2 Copyright (c) Steve Scherf et al.
# Submitted via: CDex 1.51
#
DISCID=b80b9e0e
DTITLE=仏教音楽研究所 - よろこびの合唱 ほほえみとともに
DYEAR=1997
DGENRE=Chorus
TTITLE0=まるいこころ
TTITLE1=ありがとう
TTITLE2=やさしさにであったら
TTITLE3=アソカの園
TTITLE4=仏教壮年の歌
TTITLE5=宗祖降誕会
TTITLE6=報恩講の歌
TTITLE7=いのち
TTITLE8=旅ゆくしんらん
TTITLE9=ほとけさまは
TTITLE10=のんのさま
TTITLE11=太陽からの手紙
TTITLE12=いのちまいにちあたらしい
TTITLE13=ほほえみとともに
EXTD=YEAR: 1997
EXTT0=
EXTT1=
EXTT2=
EXTT3=
EXTT4=
EXTT5=
EXTT6=
EXTT7=
EXTT8=
EXTT9=
EXTT10=
EXTT11=
EXTT12=
EXTT13=
PLAYORDER=
